<svg xmlns="http://www.w3.org/2000/svg" version="1.1" xmlns:xlink="http://www.w3.org/1999/xlink" xmlns:svgjs="http://svgjs.dev/svgjs" width="1500" height="1500" viewBox="0 0 1500 1500"><rect width="1500" height="1500" fill="#ffffff"></rect><g transform="matrix(0.6666666666666666,0,0,0.6666666666666666,249.39393939393938,438.5856950067477)"><svg viewBox="0 0 396 247" data-background-color="#ffffff" preserveAspectRatio="xMidYMid meet" height="935" width="1500" xmlns="http://www.w3.org/2000/svg" xmlns:xlink="http://www.w3.org/1999/xlink"><g id="tight-bounds" transform="matrix(1,0,0,1,0.2400000000000091,-0.09999999999999432)"><svg viewBox="0 0 395.52 247.2" height="247.2" width="395.52"><g><svg></svg></g><g><svg viewBox="0 0 395.52 247.2" height="247.2" width="395.52"><mask id="df379334-e978-4de1-b0db-5397814bfa3c"><rect width="395.52" height="247.2" fill="white"></rect><g transform="matrix(1,0,0,1,56.61943707608839,37.08)" id="clone"><svg viewBox="0 0 282.2811258478232 173.04" height="173.04" width="282.2811258478232"><g><svg viewBox="0 0 282.2811258478232 173.04" height="173.04" width="282.2811258478232"><g><svg viewBox="0 0 395.52000000000004 242.4560997283828" height="173.04" width="282.2811258478232"><g><svg viewBox="0 0 395.52000000000004 242.4560997283828" height="242.4560997283828" width="395.52000000000004"><g id="SvgjsG2062"><svg viewBox="0 0 395.52000000000004 242.4560997283828" height="242.4560997283828" width="395.52000000000004" id="SvgjsSvg2061"><g><svg viewBox="0 0 395.52000000000004 166.1848739495798" height="166.1848739495798" width="395.52000000000004"><g transform="matrix(1,0,0,1,0,0)"><svg width="395.52000000000004" viewBox="-1.3 -38 96.2 41" height="166.1848739495798" data-palette-color="#d9bca9"><path d="M15.1 0L15.1 0Q14.4 0 13.98-0.45 13.55-0.9 13.55-1.5L13.55-1.5 13.55-33.35 16.65-33.35 16.65-1.5Q16.65-0.9 16.2-0.45 15.75 0 15.1 0ZM27-32.15L3.2-32.15Q2.6-32.15 2.15-32.55 1.7-32.95 1.7-33.6L1.7-33.6Q1.7-34.2 2.15-34.6 2.6-35 3.2-35L3.2-35 27-35Q27.6-35 28.05-34.6 28.5-34.2 28.5-33.55L28.5-33.55Q28.5-32.9 28.05-32.52 27.6-32.15 27-32.15L27-32.15ZM46.8 0L46.8 0Q46.1 0 45.67-0.45 45.25-0.9 45.25-1.5L45.25-1.5 45.25-33.35 48.35-33.35 48.35-1.5Q48.35-0.9 47.9-0.45 47.45 0 46.8 0ZM58.7-32.15L34.9-32.15Q34.3-32.15 33.85-32.55 33.4-32.95 33.4-33.6L33.4-33.6Q33.4-34.2 33.85-34.6 34.3-35 34.9-35L34.9-35 58.7-35Q59.3-35 59.75-34.6 60.2-34.2 60.2-33.55L60.2-33.55Q60.2-32.9 59.75-32.52 59.3-32.15 58.7-32.15L58.7-32.15ZM78.5 0L78.5 0Q77.8 0 77.37-0.45 76.95-0.9 76.95-1.5L76.95-1.5 76.95-33.35 80.05-33.35 80.05-1.5Q80.05-0.9 79.6-0.45 79.15 0 78.5 0ZM90.4-32.15L66.6-32.15Q66-32.15 65.55-32.55 65.1-32.95 65.1-33.6L65.1-33.6Q65.1-34.2 65.55-34.6 66-35 66.6-35L66.6-35 90.4-35Q91-35 91.45-34.6 91.9-34.2 91.9-33.55L91.9-33.55Q91.9-32.9 91.45-32.52 91-32.15 90.4-32.15L90.4-32.15Z" opacity="1" transform="matrix(1,0,0,1,0,0)" fill="black" class="wordmark-text-0" id="SvgjsPath2060" stroke-width="5" stroke="black" stroke-linejoin="round"></path></svg></g></svg></g><g transform="matrix(1,0,0,1,2.5,187.403940302521)"><svg viewBox="0 0 390.52000000000004 55.052159425861845" height="55.052159425861845" width="390.52000000000004"><g transform="matrix(1,0,0,1,0,0)"><svg width="390.52000000000004" viewBox="-2.25 -40.5 391.11 56" height="55.052159425861845" data-palette-color="#7c4e29"><path d="M15.7 0L10.95 0 10.95-30.7 0.75-30.7 0.75-35 25.9-35 25.9-30.7 15.7-30.7 15.7 0ZM33.9 0L29.35 0 29.35-37.5 33.9-37.5 33.9-20.25 32.3-20.35Q34.02-22.53 36.01-23.76 38-25 41.1-25L41.1-25Q44.27-25 46.4-23.58 48.52-22.15 49.59-19.6 50.65-17.05 50.65-13.65L50.65-13.65 50.65 0 46.15 0 46.15-13.1Q46.15-17.15 44.66-19.07 43.17-21 40.1-21L40.1-21Q37.77-21 35.98-19.75 34.2-18.5 33.15-16.4L33.15-16.4 33.9-19.15 33.9 0ZM61.3 0L56.5 0 56.5-24.5 60.2-24.5 60.75-20.45Q62.62-22.78 64.33-23.89 66.05-25 68-25L68-25Q68.62-25 69.15-24.85L69.15-24.85 68.7-19.9Q68.37-19.98 68.01-20.01 67.65-20.05 67.2-20.05L67.2-20.05Q65.25-20.05 63.61-19.19 61.97-18.32 61.3-17.3L61.3-17.3 61.3 0ZM82.34 0.5L82.34 0.5Q78.49 0.5 75.78-1.21 73.07-2.93 71.63-5.81 70.19-8.7 70.19-12.25L70.19-12.25Q70.19-15.8 71.63-18.69 73.07-21.58 75.78-23.29 78.49-25 82.34-25L82.34-25Q86.17-25 88.89-23.29 91.62-21.58 93.06-18.69 94.49-15.8 94.49-12.25L94.49-12.25Q94.49-8.7 93.06-5.81 91.62-2.93 88.89-1.21 86.17 0.5 82.34 0.5ZM82.34-3.5L82.34-3.5Q85.99-3.5 87.94-5.81 89.89-8.13 89.89-12.25L89.89-12.25Q89.89-16.38 87.94-18.69 85.99-21 82.34-21L82.34-21Q78.72-21 76.75-18.69 74.79-16.38 74.79-12.25L74.79-12.25Q74.79-8.13 76.75-5.81 78.72-3.5 82.34-3.5ZM107.94 0.5L107.94 0.5Q105.06 0.5 103.04-0.66 101.02-1.83 99.95-4.2 98.89-6.58 98.89-10.25L98.89-10.25 98.89-24.5 103.39-24.5 103.39-11.5Q103.39-7.6 104.73-5.55 106.06-3.5 109.09-3.5L109.09-3.5Q111.17-3.5 112.94-4.5 114.72-5.5 115.39-7.7L115.39-7.7 114.74-5.25 114.74-24.5 119.24-24.5 119.24 0 115.24 0 114.34-4.8 115.54-4Q114.31-1.73 112.55-0.61 110.79 0.5 107.94 0.5ZM135.24 12.5L135.24 12.5Q131.89 12.5 129.25 11.68 126.61 10.85 125.1 9.22 123.59 7.6 123.59 5.2L123.59 5.2Q123.59 3.2 124.73 1.76 125.86 0.33 127.84-0.55L127.84-0.55Q126.66-1.13 126.05-1.91 125.44-2.7 125.44-3.65L125.44-3.65Q125.44-4.78 126.13-5.69 126.81-6.6 128.34-7.2L128.34-7.2Q126.29-8.47 125.19-10.64 124.09-12.8 124.09-15.45L124.09-15.45Q124.09-18.13 125.29-20.29 126.49-22.45 128.75-23.73 131.01-25 134.19-25L134.19-25Q135.89-25 137.4-24.5 138.91-24 140.19-23.1L140.19-23.1Q141.31-23.75 142.85-24.18 144.39-24.6 146.29-24.6L146.29-24.6Q146.41-24.6 146.5-24.6 146.59-24.6 146.69-24.6L146.69-24.6 146.14-21.6Q145.84-21.6 145.56-21.6 145.29-21.6 144.99-21.6L144.99-21.6Q144.74-21.6 143.84-21.53 142.94-21.45 142.19-21.25L142.19-21.25Q143.21-20.05 143.78-18.56 144.34-17.07 144.34-15.45L144.34-15.45Q144.34-12.65 143.13-10.44 141.91-8.22 139.64-6.94 137.36-5.65 134.19-5.65L134.19-5.65Q133.29-5.65 132.46-5.76 131.64-5.88 130.89-6.1L130.89-6.1Q129.74-5.73 129.74-4.8L129.74-4.8Q129.74-4.25 130.39-3.84 131.04-3.43 132.49-3.2L132.49-3.2 139.04-2.15Q143.01-1.53 145.18 0.15 147.34 1.83 147.34 4.9L147.34 4.9Q147.34 7.45 145.85 9.14 144.36 10.83 141.64 11.66 138.91 12.5 135.24 12.5ZM135.64 8.5L135.64 8.5Q139.09 8.5 140.94 7.61 142.79 6.73 142.79 5L142.79 5Q142.79 3.65 141.63 2.88 140.46 2.1 138.29 1.7L138.29 1.7 131.31 0.53Q129.94 1.13 128.91 2.14 127.89 3.15 127.89 4.5L127.89 4.5Q127.89 6.6 130 7.55 132.11 8.5 135.64 8.5ZM134.19-9.25L134.19-9.25Q137.04-9.25 138.54-10.96 140.04-12.68 140.04-15.4L140.04-15.4Q140.04-18.03 138.54-19.71 137.04-21.4 134.19-21.4L134.19-21.4Q131.34-21.4 129.86-19.71 128.39-18.03 128.39-15.4L128.39-15.4Q128.39-12.68 129.86-10.96 131.34-9.25 134.19-9.25ZM154.74 0L150.19 0 150.19-37.5 154.74-37.5 154.74-20.25 153.13-20.35Q154.86-22.53 156.85-23.76 158.84-25 161.94-25L161.94-25Q165.11-25 167.24-23.58 169.36-22.15 170.42-19.6 171.49-17.05 171.49-13.65L171.49-13.65 171.49 0 166.99 0 166.99-13.1Q166.99-17.15 165.5-19.07 164.01-21 160.94-21L160.94-21Q158.61-21 156.82-19.75 155.03-18.5 153.99-16.4L153.99-16.4 154.74-19.15 154.74 0ZM201.08 0.5L197.03 0.5Q194.71 0.5 193.31-0.35 191.91-1.2 191.27-2.54 190.63-3.88 190.63-5.35L190.63-5.35 190.63-21 186.43-21 186.83-24.5 190.63-24.5 190.63-30.55 195.13-31 195.13-24.5 201.58-24.5 201.58-21 195.13-21 195.13-8.1Q195.13-5.75 195.41-4.7 195.68-3.65 196.77-3.38 197.85-3.1 200.28-3.1L200.28-3.1 201.43-3.1 201.08 0.5ZM209.93 0L205.38 0 205.38-37.5 209.93-37.5 209.93-20.25 208.33-20.35Q210.05-22.53 212.04-23.76 214.03-25 217.13-25L217.13-25Q220.3-25 222.43-23.58 224.55-22.15 225.62-19.6 226.68-17.05 226.68-13.65L226.68-13.65 226.68 0 222.18 0 222.18-13.1Q222.18-17.15 220.69-19.07 219.2-21 216.13-21L216.13-21Q213.8-21 212.01-19.75 210.23-18.5 209.18-16.4L209.18-16.4 209.93-19.15 209.93 0ZM244.28 0.5L244.28 0.5Q239.95 0.5 237-1.28 234.05-3.05 232.54-5.99 231.03-8.93 231.03-12.45L231.03-12.45Q231.03-15.88 232.44-18.73 233.85-21.58 236.54-23.29 239.22-25 243.03-25L243.03-25Q246.07-25 248.46-23.79 250.85-22.58 252.21-20.26 253.57-17.95 253.57-14.65L253.57-14.65Q253.57-14.13 253.54-13.51 253.5-12.9 253.38-12.25L253.38-12.25 235.63-12.25Q235.95-8.85 237.25-6.95 238.55-5.05 240.53-4.28 242.5-3.5 244.82-3.5L244.82-3.5Q246.53-3.5 248.38-3.85 250.22-4.2 251.88-4.95L251.88-4.95 252.47-1.4Q251.05-0.78 249-0.14 246.95 0.5 244.28 0.5ZM236.03-15.35L236.03-15.35 248.93-15.35Q248.93-17.07 248.28-18.35 247.63-19.63 246.3-20.31 244.97-21 242.92-21L242.92-21Q239.92-21 238.31-19.51 236.7-18.03 236.03-15.35ZM281.87 0.5L277.82 0.5Q275.5 0.5 274.09-0.35 272.69-1.2 272.06-2.54 271.42-3.88 271.42-5.35L271.42-5.35 271.42-21 267.22-21 267.62-24.5 271.42-24.5 271.42-30.55 275.92-31 275.92-24.5 282.37-24.5 282.37-21 275.92-21 275.92-8.1Q275.92-5.75 276.19-4.7 276.47-3.65 277.56-3.38 278.64-3.1 281.07-3.1L281.07-3.1 282.22-3.1 281.87 0.5ZM296.72 0.5L296.72 0.5Q292.87 0.5 290.16-1.21 287.44-2.93 286.01-5.81 284.57-8.7 284.57-12.25L284.57-12.25Q284.57-15.8 286.01-18.69 287.44-21.58 290.16-23.29 292.87-25 296.72-25L296.72-25Q300.54-25 303.27-23.29 305.99-21.58 307.43-18.69 308.87-15.8 308.87-12.25L308.87-12.25Q308.87-8.7 307.43-5.81 305.99-2.93 303.27-1.21 300.54 0.5 296.72 0.5ZM296.72-3.5L296.72-3.5Q300.37-3.5 302.32-5.81 304.27-8.13 304.27-12.25L304.27-12.25Q304.27-16.38 302.32-18.69 300.37-21 296.72-21L296.72-21Q293.09-21 291.13-18.69 289.17-16.38 289.17-12.25L289.17-12.25Q289.17-8.13 291.13-5.81 293.09-3.5 296.72-3.5ZM322.32 0.5L322.32 0.5Q319.44 0.5 317.42-0.66 315.39-1.83 314.33-4.2 313.27-6.58 313.27-10.25L313.27-10.25 313.27-24.5 317.77-24.5 317.77-11.5Q317.77-7.6 319.1-5.55 320.44-3.5 323.47-3.5L323.47-3.5Q325.54-3.5 327.32-4.5 329.09-5.5 329.77-7.7L329.77-7.7 329.12-5.25 329.12-24.5 333.62-24.5 333.62 0 329.62 0 328.72-4.8 329.92-4Q328.69-1.73 326.93-0.61 325.17 0.5 322.32 0.5ZM349.61 12.5L349.61 12.5Q346.26 12.5 343.63 11.68 340.99 10.85 339.48 9.22 337.96 7.6 337.96 5.2L337.96 5.2Q337.96 3.2 339.1 1.76 340.24 0.33 342.21-0.55L342.21-0.55Q341.04-1.13 340.43-1.91 339.81-2.7 339.81-3.65L339.81-3.65Q339.81-4.78 340.5-5.69 341.19-6.6 342.71-7.2L342.71-7.2Q340.66-8.47 339.56-10.64 338.46-12.8 338.46-15.45L338.46-15.45Q338.46-18.13 339.66-20.29 340.86-22.45 343.13-23.73 345.39-25 348.56-25L348.56-25Q350.26-25 351.78-24.5 353.29-24 354.56-23.1L354.56-23.1Q355.69-23.75 357.23-24.18 358.76-24.6 360.66-24.6L360.66-24.6Q360.79-24.6 360.88-24.6 360.96-24.6 361.06-24.6L361.06-24.6 360.51-21.6Q360.21-21.6 359.94-21.6 359.66-21.6 359.36-21.6L359.36-21.6Q359.11-21.6 358.21-21.53 357.31-21.45 356.56-21.25L356.56-21.25Q357.59-20.05 358.15-18.56 358.71-17.07 358.71-15.45L358.71-15.45Q358.71-12.65 357.5-10.44 356.29-8.22 354.01-6.94 351.74-5.65 348.56-5.65L348.56-5.65Q347.66-5.65 346.84-5.76 346.01-5.88 345.26-6.1L345.26-6.1Q344.11-5.73 344.11-4.8L344.11-4.8Q344.11-4.25 344.76-3.84 345.41-3.43 346.86-3.2L346.86-3.2 353.41-2.15Q357.39-1.53 359.55 0.15 361.71 1.83 361.71 4.9L361.71 4.9Q361.71 7.45 360.23 9.14 358.74 10.83 356.01 11.66 353.29 12.5 349.61 12.5ZM350.01 8.5L350.01 8.5Q353.46 8.5 355.31 7.61 357.16 6.73 357.16 5L357.16 5Q357.16 3.65 356 2.88 354.84 2.1 352.66 1.7L352.66 1.7 345.69 0.53Q344.31 1.13 343.29 2.14 342.26 3.15 342.26 4.5L342.26 4.5Q342.26 6.6 344.38 7.55 346.49 8.5 350.01 8.5ZM348.56-9.25L348.56-9.25Q351.41-9.25 352.91-10.96 354.41-12.68 354.41-15.4L354.41-15.4Q354.41-18.03 352.91-19.71 351.41-21.4 348.56-21.4L348.56-21.4Q345.71-21.4 344.24-19.71 342.76-18.03 342.76-15.4L342.76-15.4Q342.76-12.68 344.24-10.96 345.71-9.25 348.56-9.25ZM369.11 0L364.56 0 364.56-37.5 369.11-37.5 369.11-20.25 367.51-20.35Q369.24-22.53 371.22-23.76 373.21-25 376.31-25L376.31-25Q379.49-25 381.61-23.58 383.74-22.15 384.8-19.6 385.86-17.05 385.86-13.65L385.86-13.65 385.86 0 381.36 0 381.36-13.1Q381.36-17.15 379.87-19.07 378.38-21 375.31-21L375.31-21Q372.99-21 371.2-19.75 369.41-18.5 368.36-16.4L368.36-16.4 369.11-19.15 369.11 0Z" opacity="1" transform="matrix(1,0,0,1,0,0)" fill="black" class="slogan-text-1" id="SvgjsPath2059" stroke-width="5" stroke="black" stroke-linejoin="round"></path></svg></g></svg></g></svg></g></svg></g></svg></g></svg></g></svg></g></mask><g mask="url(#df379334-e978-4de1-b0db-5397814bfa3c)"><g><path d="M197.76 247.2v0c-3.296 0-5.933-1.059-7.91-3.178-2.025-2.119-3.037-4.591-3.037-7.416v0-224.952h21.894v224.952c0 2.825-1.059 5.297-3.178 7.416-2.119 2.119-4.709 3.178-7.769 3.178zM281.808 20.129h-168.096c-2.825 0-5.297-0.942-7.416-2.825-2.119-1.883-3.178-4.355-3.178-7.416v0c0-2.825 1.059-5.179 3.178-7.063 2.119-1.883 4.591-2.825 7.416-2.825v0h168.096c2.825 0 5.297 0.942 7.416 2.825 2.119 1.883 3.178 4.355 3.178 7.416v0c0 3.061-1.059 5.485-3.178 7.275-2.119 1.742-4.591 2.613-7.416 2.613z" fill="#d9bca9" fill-rule="nonzero" stroke="none" stroke-width="1" stroke-linecap="butt" stroke-linejoin="miter" stroke-miterlimit="10" stroke-dasharray="" stroke-dashoffset="0" font-family="none" font-weight="none" font-size="none" text-anchor="none" style="mix-blend-mode: normal" data-fill-palette-color="tertiary"></path></g></g><g transform="matrix(1,0,0,1,56.61943707608839,37.08)"><svg viewBox="0 0 282.2811258478232 173.04" height="173.04" width="282.2811258478232"><g><svg viewBox="0 0 282.2811258478232 173.04" height="173.04" width="282.2811258478232"><g><svg viewBox="0 0 395.52000000000004 242.4560997283828" height="173.04" width="282.2811258478232"><g><svg viewBox="0 0 395.52000000000004 242.4560997283828" height="242.4560997283828" width="395.52000000000004"><g id="textblocktransform"><svg viewBox="0 0 395.52000000000004 242.4560997283828" height="242.4560997283828" width="395.52000000000004" id="textblock"><g><svg viewBox="0 0 395.52000000000004 166.1848739495798" height="166.1848739495798" width="395.52000000000004"><g transform="matrix(1,0,0,1,0,0)"><svg width="395.52000000000004" viewBox="-1.3 -38 96.2 41" height="166.1848739495798" data-palette-color="#d9bca9"><path d="M15.1 0L15.1 0Q14.4 0 13.98-0.45 13.55-0.9 13.55-1.5L13.55-1.5 13.55-33.35 16.65-33.35 16.65-1.5Q16.65-0.9 16.2-0.45 15.75 0 15.1 0ZM27-32.15L3.2-32.15Q2.6-32.15 2.15-32.55 1.7-32.95 1.7-33.6L1.7-33.6Q1.7-34.2 2.15-34.6 2.6-35 3.2-35L3.2-35 27-35Q27.6-35 28.05-34.6 28.5-34.2 28.5-33.55L28.5-33.55Q28.5-32.9 28.05-32.52 27.6-32.15 27-32.15L27-32.15ZM46.8 0L46.8 0Q46.1 0 45.67-0.45 45.25-0.9 45.25-1.5L45.25-1.5 45.25-33.35 48.35-33.35 48.35-1.5Q48.35-0.9 47.9-0.45 47.45 0 46.8 0ZM58.7-32.15L34.9-32.15Q34.3-32.15 33.85-32.55 33.4-32.95 33.4-33.6L33.4-33.6Q33.4-34.2 33.85-34.6 34.3-35 34.9-35L34.9-35 58.7-35Q59.3-35 59.75-34.6 60.2-34.2 60.2-33.55L60.2-33.55Q60.2-32.9 59.75-32.52 59.3-32.15 58.7-32.15L58.7-32.15ZM78.5 0L78.5 0Q77.8 0 77.37-0.45 76.95-0.9 76.95-1.5L76.95-1.5 76.95-33.35 80.05-33.35 80.05-1.5Q80.05-0.9 79.6-0.45 79.15 0 78.5 0ZM90.4-32.15L66.6-32.15Q66-32.15 65.55-32.55 65.1-32.95 65.1-33.6L65.1-33.6Q65.1-34.2 65.55-34.6 66-35 66.6-35L66.6-35 90.4-35Q91-35 91.45-34.6 91.9-34.2 91.9-33.55L91.9-33.55Q91.9-32.9 91.45-32.52 91-32.15 90.4-32.15L90.4-32.15Z" opacity="1" transform="matrix(1,0,0,1,0,0)" fill="#d9bca9" class="wordmark-text-0" data-fill-palette-color="primary" id="text-0"></path></svg></g></svg></g><g transform="matrix(1,0,0,1,2.5,187.403940302521)"><svg viewBox="0 0 390.52000000000004 55.052159425861845" height="55.052159425861845" width="390.52000000000004"><g transform="matrix(1,0,0,1,0,0)"><svg width="390.52000000000004" viewBox="-2.25 -40.5 391.11 56" height="55.052159425861845" data-palette-color="#7c4e29"><path d="M15.7 0L10.95 0 10.95-30.7 0.75-30.7 0.75-35 25.9-35 25.9-30.7 15.7-30.7 15.7 0ZM33.9 0L29.35 0 29.35-37.5 33.9-37.5 33.9-20.25 32.3-20.35Q34.02-22.53 36.01-23.76 38-25 41.1-25L41.1-25Q44.27-25 46.4-23.58 48.52-22.15 49.59-19.6 50.65-17.05 50.65-13.65L50.65-13.65 50.65 0 46.15 0 46.15-13.1Q46.15-17.15 44.66-19.07 43.17-21 40.1-21L40.1-21Q37.77-21 35.98-19.75 34.2-18.5 33.15-16.4L33.15-16.4 33.9-19.15 33.9 0ZM61.3 0L56.5 0 56.5-24.5 60.2-24.5 60.75-20.45Q62.62-22.78 64.33-23.89 66.05-25 68-25L68-25Q68.62-25 69.15-24.85L69.15-24.85 68.7-19.9Q68.37-19.98 68.01-20.01 67.65-20.05 67.2-20.05L67.2-20.05Q65.25-20.05 63.61-19.19 61.97-18.32 61.3-17.3L61.3-17.3 61.3 0ZM82.34 0.5L82.34 0.5Q78.49 0.5 75.78-1.21 73.07-2.93 71.63-5.81 70.19-8.7 70.19-12.25L70.19-12.25Q70.19-15.8 71.63-18.69 73.07-21.58 75.78-23.29 78.49-25 82.34-25L82.34-25Q86.17-25 88.89-23.29 91.62-21.58 93.06-18.69 94.49-15.8 94.49-12.25L94.49-12.25Q94.49-8.7 93.06-5.81 91.62-2.93 88.89-1.21 86.17 0.5 82.34 0.5ZM82.34-3.5L82.34-3.5Q85.99-3.5 87.94-5.81 89.89-8.13 89.89-12.25L89.89-12.25Q89.89-16.38 87.94-18.69 85.99-21 82.34-21L82.34-21Q78.72-21 76.75-18.69 74.79-16.38 74.79-12.25L74.79-12.25Q74.79-8.13 76.75-5.81 78.72-3.5 82.34-3.5ZM107.94 0.5L107.94 0.5Q105.06 0.5 103.04-0.66 101.02-1.83 99.95-4.2 98.89-6.58 98.89-10.25L98.89-10.25 98.89-24.5 103.39-24.5 103.39-11.5Q103.39-7.6 104.73-5.55 106.06-3.5 109.09-3.5L109.09-3.5Q111.17-3.5 112.94-4.5 114.72-5.5 115.39-7.7L115.39-7.7 114.74-5.25 114.74-24.5 119.24-24.5 119.24 0 115.24 0 114.34-4.8 115.54-4Q114.31-1.73 112.55-0.61 110.79 0.5 107.94 0.5ZM135.24 12.5L135.24 12.5Q131.89 12.5 129.25 11.68 126.61 10.85 125.1 9.22 123.59 7.6 123.59 5.2L123.59 5.2Q123.59 3.2 124.73 1.76 125.86 0.33 127.84-0.55L127.84-0.55Q126.66-1.13 126.05-1.91 125.44-2.7 125.44-3.65L125.44-3.65Q125.44-4.78 126.13-5.69 126.81-6.6 128.34-7.2L128.34-7.2Q126.29-8.47 125.19-10.64 124.09-12.8 124.09-15.45L124.09-15.45Q124.09-18.13 125.29-20.29 126.49-22.45 128.75-23.73 131.01-25 134.19-25L134.19-25Q135.89-25 137.4-24.5 138.91-24 140.19-23.1L140.19-23.1Q141.31-23.75 142.85-24.18 144.39-24.6 146.29-24.6L146.29-24.6Q146.41-24.6 146.5-24.6 146.59-24.6 146.69-24.6L146.69-24.6 146.14-21.6Q145.84-21.6 145.56-21.6 145.29-21.6 144.99-21.6L144.99-21.6Q144.74-21.6 143.84-21.53 142.94-21.45 142.19-21.25L142.19-21.25Q143.21-20.05 143.78-18.56 144.34-17.07 144.34-15.45L144.34-15.45Q144.34-12.65 143.13-10.44 141.91-8.22 139.64-6.94 137.36-5.65 134.19-5.65L134.19-5.65Q133.29-5.65 132.46-5.76 131.64-5.88 130.89-6.1L130.89-6.1Q129.74-5.73 129.74-4.8L129.74-4.8Q129.74-4.25 130.39-3.84 131.04-3.43 132.49-3.2L132.49-3.2 139.04-2.15Q143.01-1.53 145.18 0.15 147.34 1.83 147.34 4.9L147.34 4.9Q147.34 7.45 145.85 9.14 144.36 10.83 141.64 11.66 138.91 12.5 135.24 12.5ZM135.64 8.5L135.64 8.5Q139.09 8.5 140.94 7.61 142.79 6.73 142.79 5L142.79 5Q142.79 3.65 141.63 2.88 140.46 2.1 138.29 1.7L138.29 1.7 131.31 0.53Q129.94 1.13 128.91 2.14 127.89 3.15 127.89 4.5L127.89 4.5Q127.89 6.6 130 7.55 132.11 8.5 135.64 8.5ZM134.19-9.25L134.19-9.25Q137.04-9.25 138.54-10.96 140.04-12.68 140.04-15.4L140.04-15.4Q140.04-18.03 138.54-19.71 137.04-21.4 134.19-21.4L134.19-21.4Q131.34-21.4 129.86-19.71 128.39-18.03 128.39-15.4L128.39-15.4Q128.39-12.68 129.86-10.96 131.34-9.25 134.19-9.25ZM154.74 0L150.19 0 150.19-37.5 154.74-37.5 154.74-20.25 153.13-20.35Q154.86-22.53 156.85-23.76 158.84-25 161.94-25L161.94-25Q165.11-25 167.24-23.58 169.36-22.15 170.42-19.6 171.49-17.05 171.49-13.65L171.49-13.65 171.49 0 166.99 0 166.99-13.1Q166.99-17.15 165.5-19.07 164.01-21 160.94-21L160.94-21Q158.61-21 156.82-19.75 155.03-18.5 153.99-16.4L153.99-16.4 154.74-19.15 154.74 0ZM201.08 0.5L197.03 0.5Q194.71 0.5 193.31-0.35 191.91-1.2 191.27-2.54 190.63-3.88 190.63-5.35L190.63-5.35 190.63-21 186.43-21 186.83-24.5 190.63-24.5 190.63-30.55 195.13-31 195.13-24.5 201.58-24.5 201.58-21 195.13-21 195.13-8.1Q195.13-5.75 195.41-4.7 195.68-3.65 196.77-3.38 197.85-3.1 200.28-3.1L200.28-3.1 201.43-3.1 201.08 0.5ZM209.93 0L205.38 0 205.38-37.5 209.93-37.5 209.93-20.25 208.33-20.35Q210.05-22.53 212.04-23.76 214.03-25 217.13-25L217.13-25Q220.3-25 222.43-23.58 224.55-22.15 225.62-19.6 226.68-17.05 226.68-13.65L226.68-13.65 226.68 0 222.18 0 222.18-13.1Q222.18-17.15 220.69-19.07 219.2-21 216.13-21L216.13-21Q213.8-21 212.01-19.75 210.23-18.5 209.18-16.4L209.18-16.4 209.93-19.15 209.93 0ZM244.28 0.5L244.28 0.5Q239.95 0.5 237-1.28 234.05-3.05 232.54-5.99 231.03-8.93 231.03-12.45L231.03-12.45Q231.03-15.88 232.44-18.73 233.85-21.58 236.54-23.29 239.22-25 243.03-25L243.03-25Q246.07-25 248.46-23.79 250.85-22.58 252.21-20.26 253.57-17.95 253.57-14.65L253.57-14.65Q253.57-14.13 253.54-13.51 253.5-12.9 253.38-12.25L253.38-12.25 235.63-12.25Q235.95-8.85 237.25-6.95 238.55-5.05 240.53-4.28 242.5-3.5 244.82-3.5L244.82-3.5Q246.53-3.5 248.38-3.85 250.22-4.2 251.88-4.95L251.88-4.95 252.47-1.4Q251.05-0.78 249-0.14 246.95 0.5 244.28 0.5ZM236.03-15.35L236.03-15.35 248.93-15.35Q248.93-17.07 248.28-18.35 247.63-19.63 246.3-20.31 244.97-21 242.92-21L242.92-21Q239.92-21 238.31-19.51 236.7-18.03 236.03-15.35ZM281.87 0.5L277.82 0.5Q275.5 0.5 274.09-0.35 272.69-1.2 272.06-2.54 271.42-3.88 271.42-5.35L271.42-5.35 271.42-21 267.22-21 267.62-24.5 271.42-24.5 271.42-30.55 275.92-31 275.92-24.5 282.37-24.5 282.37-21 275.92-21 275.92-8.1Q275.92-5.75 276.19-4.7 276.47-3.65 277.56-3.38 278.64-3.1 281.07-3.1L281.07-3.1 282.22-3.1 281.87 0.5ZM296.72 0.5L296.72 0.5Q292.87 0.5 290.16-1.21 287.44-2.93 286.01-5.81 284.57-8.7 284.57-12.25L284.57-12.25Q284.57-15.8 286.01-18.69 287.44-21.58 290.16-23.29 292.87-25 296.72-25L296.72-25Q300.54-25 303.27-23.29 305.99-21.58 307.43-18.69 308.87-15.8 308.87-12.25L308.87-12.25Q308.87-8.7 307.43-5.81 305.99-2.93 303.27-1.21 300.54 0.5 296.72 0.5ZM296.72-3.5L296.72-3.5Q300.37-3.5 302.32-5.81 304.27-8.13 304.27-12.25L304.27-12.25Q304.27-16.38 302.32-18.69 300.37-21 296.72-21L296.72-21Q293.09-21 291.13-18.69 289.17-16.38 289.17-12.25L289.17-12.25Q289.17-8.13 291.13-5.81 293.09-3.5 296.72-3.5ZM322.32 0.5L322.32 0.5Q319.44 0.5 317.42-0.66 315.39-1.83 314.33-4.2 313.27-6.58 313.27-10.25L313.27-10.25 313.27-24.5 317.77-24.5 317.77-11.5Q317.77-7.6 319.1-5.55 320.44-3.5 323.47-3.5L323.47-3.5Q325.54-3.5 327.32-4.5 329.09-5.5 329.77-7.7L329.77-7.7 329.12-5.25 329.12-24.5 333.62-24.5 333.62 0 329.62 0 328.72-4.8 329.92-4Q328.69-1.73 326.93-0.61 325.17 0.5 322.32 0.5ZM349.61 12.5L349.61 12.5Q346.26 12.5 343.63 11.68 340.99 10.85 339.48 9.22 337.96 7.6 337.96 5.2L337.96 5.2Q337.96 3.2 339.1 1.76 340.24 0.33 342.21-0.55L342.21-0.55Q341.04-1.13 340.43-1.91 339.81-2.7 339.81-3.65L339.81-3.65Q339.81-4.78 340.5-5.69 341.19-6.6 342.71-7.2L342.71-7.2Q340.66-8.47 339.56-10.64 338.46-12.8 338.46-15.45L338.46-15.45Q338.46-18.13 339.66-20.29 340.86-22.45 343.13-23.73 345.39-25 348.56-25L348.56-25Q350.26-25 351.78-24.5 353.29-24 354.56-23.1L354.56-23.1Q355.69-23.75 357.23-24.18 358.76-24.6 360.66-24.6L360.66-24.6Q360.79-24.6 360.88-24.6 360.96-24.6 361.06-24.6L361.06-24.6 360.51-21.6Q360.21-21.6 359.94-21.6 359.66-21.6 359.36-21.6L359.36-21.6Q359.11-21.6 358.21-21.53 357.31-21.45 356.56-21.25L356.56-21.25Q357.59-20.05 358.15-18.56 358.71-17.07 358.71-15.45L358.71-15.45Q358.71-12.65 357.5-10.44 356.29-8.22 354.01-6.94 351.74-5.65 348.56-5.65L348.56-5.65Q347.66-5.65 346.84-5.76 346.01-5.88 345.26-6.1L345.26-6.1Q344.11-5.73 344.11-4.8L344.11-4.8Q344.11-4.25 344.76-3.84 345.41-3.43 346.86-3.2L346.86-3.2 353.41-2.15Q357.39-1.53 359.55 0.15 361.71 1.83 361.71 4.9L361.71 4.9Q361.71 7.45 360.23 9.14 358.74 10.83 356.01 11.66 353.29 12.5 349.61 12.5ZM350.01 8.5L350.01 8.5Q353.46 8.5 355.31 7.61 357.16 6.73 357.16 5L357.16 5Q357.16 3.65 356 2.88 354.84 2.1 352.66 1.7L352.66 1.7 345.69 0.53Q344.31 1.13 343.29 2.14 342.26 3.15 342.26 4.5L342.26 4.5Q342.26 6.6 344.38 7.55 346.49 8.5 350.01 8.5ZM348.56-9.25L348.56-9.25Q351.41-9.25 352.91-10.96 354.41-12.68 354.41-15.4L354.41-15.4Q354.41-18.03 352.91-19.71 351.41-21.4 348.56-21.4L348.56-21.4Q345.71-21.4 344.24-19.71 342.76-18.03 342.76-15.4L342.76-15.4Q342.76-12.68 344.24-10.96 345.71-9.25 348.56-9.25ZM369.11 0L364.56 0 364.56-37.5 369.11-37.5 369.11-20.25 367.51-20.35Q369.24-22.53 371.22-23.76 373.21-25 376.31-25L376.31-25Q379.49-25 381.61-23.58 383.74-22.15 384.8-19.6 385.86-17.05 385.86-13.65L385.86-13.65 385.86 0 381.36 0 381.36-13.1Q381.36-17.15 379.87-19.07 378.38-21 375.31-21L375.31-21Q372.99-21 371.2-19.75 369.41-18.5 368.36-16.4L368.36-16.4 369.11-19.15 369.11 0Z" opacity="1" transform="matrix(1,0,0,1,0,0)" fill="#7c4e29" class="slogan-text-1" data-fill-palette-color="secondary" id="text-1"></path></svg></g></svg></g></svg></g></svg></g></svg></g></svg></g></svg></g></svg></g><defs></defs></svg><rect width="395.52" height="247.2" fill="none" stroke="none" visibility="hidden"></rect></g></svg></g></svg>